<svg width="651" height="621" viewBox="0 0 651 621" fill="none" xmlns="http://www.w3.org/2000/svg">
<g clip-path="url(#clip0_643_2)">
<path d="M125 424C124.161 424.416 122.916 424.163 122 424C121.085 423.837 119.661 423.684 119 423C118.34 422.316 118.168 421.958 118 421C117.833 420.042 118.614 418.886 119 418C118.931 417.515 118.07 416.485 118 416C117.925 415.921 118.077 416.079 118 416C110.319 408.065 97.9755 413.693 98.0005 425C98.0226 435.035 96.4585 445.493 99.0005 455C100.126 459.202 102.583 463.448 105 467C89.7981 452.294 78.0023 434 70.0005 414C67.9975 408.979 65.4568 404.224 64.0005 399C62.8102 394.716 61.8266 390.375 61.0005 386C56.5422 362.249 57.6668 337.277 64.0005 314C68.9659 307.501 72.4703 300.309 73.0005 292C73.2003 289.009 72.6218 285.926 72.0005 283C71.3147 283.418 70.7061 283.632 70.0005 284C69.7794 284.111 69.2215 283.888 69.0005 284C68.218 284.387 67.8579 285.121 67.0005 285C66.1431 284.879 64.6577 283.59 64.0005 283C63.3433 282.41 63.2466 281.87 63.0005 281C62.7544 280.13 62.7565 279.87 63.0005 279C63.1527 278.458 62.8478 277.541 63.0005 277C63.2278 276.168 63.7733 274.832 64.0005 274C64.0318 273.917 63.9785 274.087 64.0005 274C64.2644 273.049 64.7366 271.951 65.0005 271C63.3539 269.812 61.9788 269.298 60.0005 269C53.1749 268.035 45.8886 274.063 44.0005 281C42.1005 287.942 44.031 295.106 48.0005 301C51.3952 306.047 56.1764 310.415 61.0005 314C60.8621 314.53 61.1387 314.471 61.0005 315C58.4857 324.712 56.6649 334.96 56.0005 345C53.2611 335.279 48.6598 326.347 42.0005 319C35.5353 312.267 27.1205 307.712 19.0005 303C9.2471 297.34 -2.14743 306.787 1.00049 318C1.03097 318.109 0.969519 318.892 1.00049 319C1.97589 319.121 3.03559 318.807 4.00049 319C5.21535 319.249 6.13191 320.075 7.00049 321C7.86906 321.925 7.78152 322.722 8.00049 324C8.21945 325.278 8.5076 326.816 8.00049 328C7.49337 329.184 7.05658 330.323 6.00049 331H5.00049C6.4705 333.86 8.13455 336.406 10.0005 339C15.2847 346.207 22.4072 352.613 30.0005 357C37.5938 361.387 45.3674 364.166 54.0005 365C54.5638 365.046 55.4421 364.966 56.0005 365C56.736 378.607 58.9575 392.047 63.0005 405C65.4084 412.632 68.4526 419.874 72.0005 427C67.2029 419.45 60.2688 413.673 52.0005 411C39.7659 407.146 25.3395 410 13.0005 408C7.06085 407.037 2.88333 413.611 6.00049 419C6.05023 419.086 5.95028 418.914 6.00049 419C7.71452 418.984 9.29779 419.793 11.0005 420C11.9759 420.121 13.0356 419.807 14.0005 420C15.2154 420.249 16.1319 421.075 17.0005 422C17.8691 422.925 18.7815 423.722 19.0005 425C19.2195 426.278 19.5076 427.816 19.0005 429C18.4934 430.184 17.0566 431.323 16.0005 432C15.9222 432.049 16.0786 431.951 16.0005 432C21.0005 437.17 26.6325 441.898 33.0005 445C40.8174 448.708 49.4225 450.841 58.0005 451C66.5784 451.159 75.0638 449.416 83.0005 446C89.0514 454.85 95.3396 462.648 103 470L136 455C135.965 454.561 136.047 454.434 136 454C133.009 455.549 130.26 457.257 127 458C128.2 453.753 128.801 449.247 130 445C130.032 444.917 129.978 445.086 130 445C130.603 442.831 131.398 440.169 132 438C130.086 433 128.064 428.325 125 424ZM76.0005 435L75.0005 434C74.8185 433.508 75.2112 433.494 75.0005 433C74.9458 432.863 75.0552 433.137 75.0005 433C75.4505 433.814 75.5386 434.191 76.0005 435Z" fill="#F2F2F2"/>
<path d="M426 184C424.781 189.222 423.929 194.62 424 200C425.334 201.755 426.666 204.245 428 206C428.051 206.071 428.941 205.936 429 206C431.631 209.429 433.369 212.571 436 216C432.766 216.632 430.282 217.219 427 217C427.114 217.419 426.873 217.581 427 218H462C466.304 208.132 469.704 197.599 472 187C480.458 186.943 489.255 185.61 497 182C504.745 178.39 512.234 172.573 518 166C522.668 160.57 526.326 154.783 529 148C528.911 147.986 528.089 148.014 528 148C526.794 147.802 525.891 146.886 525 146C524.109 145.114 523.264 144.266 523 143C522.736 141.734 523.545 140.203 524 139C524.455 137.797 524.985 136.72 526 136C526.807 135.433 527.156 135.506 528 135C529.474 134.121 531.435 132.677 533 132C533.015 131.901 532.986 132.099 533 132C533.882 125.775 527.054 121.714 522 125C511.501 131.826 497.732 134.507 488 143C481.448 148.802 477.627 157.105 476 166C476.644 158.001 476.576 150.005 476 142C474.982 128.431 472.264 114.836 468 102C468.496 101.743 468.504 102.27 469 102C476.551 97.7452 483.683 91.1094 489 84C494.317 76.8905 497.806 68.7756 500 60C500.757 56.8564 501.7 54.229 502 51C500.794 50.8024 498.891 49.8864 498 49C497.109 48.1135 497.264 47.2657 497 46C496.736 44.7342 496.545 43.203 497 42C497.455 40.7969 497.985 39.7202 499 39C499.807 38.433 501.156 37.5059 502 37C501.989 36.8876 502.012 37.1122 502 37C500.798 25.3954 486.82 21.8456 480 31C474.322 38.6213 467.44 46.1841 464 55C460.606 64.4594 458.968 73.9361 460 84C455.756 75.0167 450.808 66.9341 445 59C444.682 58.5679 444.318 58.432 444 58C447.088 52.7479 449.742 47.0217 451 41C452.474 33.9657 452.245 25.63 448 20C443.768 14.3698 435.859 12.3545 430 16C428.308 17.0733 426.067 18.2404 425 20C425.585 20.7696 426.415 21.2304 427 22C427.051 22.0708 426.941 21.9358 427 22C427.508 22.675 428.492 24.3248 429 25C429.335 25.437 429.665 25.5622 430 26C430.537 26.7035 430.909 27.0991 431 28C431.091 28.9008 430.384 30.1909 430 31C429.616 31.809 429.736 32.5423 429 33C428.264 33.4576 426.852 33.0406 426 33C425.758 32.9864 425.242 33.0134 425 33C424.225 32.946 423.775 33.108 423 33C423.496 35.9476 424.734 39.3246 426 42C429.494 49.4426 435.127 55.0164 442 59C456.2 77.8924 465.446 100.313 470 124C470.839 128.361 471.534 132.567 472 137C472.569 142.402 473.002 147.564 473 153C472.972 174.662 468.497 196.309 460 216C460.912 211.75 461.5 207.326 461 203C459.866 193.213 454.618 184.257 451 175C446.924 164.571 433.111 164.586 429 175C428.959 175.103 429.04 174.897 429 175C429.113 175.475 428.887 175.525 429 176C429.672 176.66 430.805 178.05 431 179C431.195 179.95 430.353 181.103 430 182C429.647 182.897 429.774 183.48 429 184C428.226 184.52 426.915 184.045 426 184ZM475 175C475.127 174.068 474.886 172.932 475 172C475 172.148 475 171.851 475 172C474.987 172.54 474.987 173.473 475 174V175Z" fill="#F2F2F2"/>
<path d="M390 417H281C279.457 417.002 278.09 417.849 277 419C275.91 420.151 274.998 421.374 275 423V605H396V423C396 422.194 396.293 421.745 396 421C395.707 420.255 394.541 419.57 394 419C393.459 418.43 392.707 417.308 392 417C391.293 416.692 390.765 417 390 417ZM336 520C332.588 519.983 329.413 518.542 327 516C324.587 513.458 323.016 510.595 323 507V486C323 482.4 324.584 478.546 327 476C329.416 473.454 332.583 472 336 472C339.417 472 342.584 473.454 345 476C347.416 478.546 349 482.4 349 486V507C348.984 510.595 347.413 513.458 345 516C342.587 518.542 339.412 519.983 336 520Z" fill="#E6E6E6"/>
<path d="M275 600V618C275.002 618.91 275.393 619.356 276 620C276.607 620.644 277.142 620.998 278 621H393C393.857 620.995 394.394 620.643 395 620C395.606 619.357 395.996 618.909 396 618V600H275Z" fill="#CCCCCC"/>
<path d="M570 133H104C99.998 133.007 95.8299 135.01 93 138C90.1701 140.99 89.0064 144.772 89 149V481C89.0038 485.229 90.1696 489.01 93 492C95.8304 494.99 99.9972 496.996 104 497H570C574.003 496.996 578.17 494.99 581 492C583.83 489.01 584.996 485.229 585 481V149C584.994 144.772 583.83 140.99 581 138C578.17 135.01 574.002 133.007 570 133Z" fill="#E6E6E6"/>
<path d="M566 145H108C105.857 145.005 103.513 146.397 102 148C100.487 149.603 100 151.735 100 154V477C100.002 479.262 100.487 481.4 102 483C103.513 484.6 105.86 485.997 108 486H566C568.14 485.997 570.487 484.6 572 483C573.513 481.4 573.998 479.262 574 477V154C574 151.735 573.513 149.603 572 148C570.487 146.397 568.143 145.005 566 145Z" fill="white"/>
<path d="M158 467C158.01 473.359 157.086 480.042 155 486H108C105.871 485.996 103.505 484.604 102 483C100.495 481.396 100.004 479.268 100 477V415C102.617 414.549 105.349 413.999 108 414C114.578 414 120.923 415.318 127 418C133.077 420.682 138.349 425.044 143 430C147.651 434.956 151.483 440.524 154 447C156.517 453.476 158 459.991 158 467Z" fill="#F55053"/>
<path d="M574 154V436C538.659 446.874 501.417 444.788 467 431C432.584 417.212 403.606 391.887 384 359C364.394 326.113 355.886 287.717 359 249C362.115 210.283 376.422 173.926 401 145H566C568.15 145.005 570.482 146.394 572 148C573.518 149.606 574 151.731 574 154Z" fill="#E6E6E6"/>
<path d="M543 190H115C114.555 189.989 113.311 189.374 113 189C112.688 188.626 113 188.523 113 188C113 187.477 112.688 187.374 113 187C113.311 186.626 114.555 186.011 115 186H543C543.445 186.011 544.688 186.626 545 187C545.311 187.374 545 187.477 545 188C545 188.523 545.311 188.626 545 189C544.688 189.374 543.445 189.989 543 190Z" fill="#CACACA"/>
<path d="M144 177C149.523 177 154 172.075 154 166C154 159.925 149.523 155 144 155C138.477 155 134 159.925 134 166C134 172.075 138.477 177 144 177Z" fill="#3F3D56"/>
<path d="M178 177C183.523 177 188 172.075 188 166C188 159.925 183.523 155 178 155C172.477 155 168 159.925 168 166C168 172.075 172.477 177 178 177Z" fill="#3F3D56"/>
<path d="M213 177C218.523 177 223 172.075 223 166C223 159.925 218.523 155 213 155C207.477 155 203 159.925 203 166C203 172.075 207.477 177 213 177Z" fill="#3F3D56"/>
<path d="M522 158H498C497.517 158.01 497.338 158.626 497 159C496.662 159.374 496 159.476 496 160C496 160.524 496.662 160.626 497 161C497.338 161.374 497.517 161.99 498 162H522C522.483 161.99 522.662 161.374 523 161C523.338 160.626 524 160.524 524 160C524 159.476 523.338 159.374 523 159C522.662 158.626 522.483 158.01 522 158Z" fill="#3F3D56"/>
<path d="M522 165H498C497.517 165.01 497.338 165.626 497 166C496.662 166.374 496 166.476 496 167C496 167.524 496.662 167.626 497 168C497.338 168.374 497.517 168.99 498 169H522C522.483 168.99 522.662 168.374 523 168C523.338 167.626 524 167.524 524 167C524 166.476 523.338 166.374 523 166C522.662 165.626 522.483 165.01 522 165Z" fill="#3F3D56"/>
<path d="M522 172H498C497.517 172.01 497.338 172.626 497 173C496.662 173.374 496 173.476 496 174C496 174.524 496.662 174.626 497 175C497.338 175.374 497.517 175.99 498 176H522C522.483 175.99 522.662 175.374 523 175C523.338 174.626 524 174.524 524 174C524 173.476 523.338 173.374 523 173C522.662 172.626 522.483 172.01 522 172Z" fill="#3F3D56"/>
<path d="M294.511 63.9968C295.98 60.7212 289.21 54.6308 279.09 49.5542C268.97 44.4776 259.333 42.3371 257.864 45.6128C256.395 48.8884 263.651 56.3396 273.771 61.4162C283.89 66.4929 293.043 67.2725 294.511 63.9968Z" fill="#2F2E41"/>
<path d="M378.309 99.2902C380.996 96.9102 376.965 87.9405 369.766 78.8468C362.568 69.7532 354.928 63.9792 352.24 66.3592C349.553 68.7392 352.836 78.3719 360.034 87.4655C367.233 96.5592 375.621 101.67 378.309 99.2902Z" fill="#2F2E41"/>
<path d="M322 118C344.368 118 362 98.7482 362 75C362 51.2518 344.368 32 322 32C299.632 32 281 51.2518 281 75C281 98.7482 299.632 118 322 118Z" fill="#2F2E41"/>
<path d="M339 109H327V132H339V109Z" fill="#2F2E41"/>
<path d="M314 109H302V132H314V109Z" fill="#2F2E41"/>
<path d="M329 137C334.799 137 339 135.209 339 133C339 130.791 334.799 129 329 129C323.201 129 318 130.791 318 133C318 135.209 323.201 137 329 137Z" fill="#2F2E41"/>
<path d="M305 136C310.799 136 315 134.209 315 132C315 129.791 310.799 128 305 128C299.201 128 294 129.791 294 132C294 134.209 299.201 136 305 136Z" fill="#2F2E41"/>
<path d="M309 21C312.598 5.77754 327.009 -3.1721 343 0.999994C358.992 5.17209 368.598 20.7775 365 36C361.403 51.2224 348.992 52.1721 333 48C317.009 43.8279 305.403 36.2225 309 21Z" fill="#E6E6E6"/>
<path d="M316 81C323.456 81 329 74.0081 329 66C329 57.9919 323.456 52 316 52C308.544 52 302 57.9919 302 66C302 74.0081 308.544 81 316 81Z" fill="white"/>
<path d="M315 77C317.485 77 319 74.7614 319 72C319 69.2386 317.485 67 315 67C312.515 67 310 69.2386 310 72C310 74.7614 312.515 77 315 77Z" fill="#3F3D56"/>
<path d="M333 92C333.892 97.2185 321.904 106.05 317 107C314.644 107.456 311.968 106.449 310 105C308.031 103.551 306.428 101.506 306 99C305.112 93.7806 309.094 91.9449 314 91C318.905 90.0551 332.112 86.7806 333 92Z" fill="white"/>
<path d="M476.433 393.213C483.251 383.831 486.908 374.704 484.122 372.44C481.337 370.175 473.164 375.63 466.345 385.012C459.527 394.394 456.646 404.151 459.431 406.416C462.217 408.68 469.614 402.595 476.433 393.213Z" fill="#2F2E41"/>
<path d="M514 425C536.368 425 554 405.748 554 382C554 358.252 536.368 339 514 339C491.632 339 473 358.252 473 382C473 405.748 491.632 425 514 425Z" fill="#2F2E41"/>
<path d="M532 415H520V438H532V415Z" fill="#2F2E41"/>
<path d="M507 415H495V438H507V415Z" fill="#2F2E41"/>
<path d="M523 443C528.799 443 533 441.209 533 439C533 436.791 528.799 435 523 435C517.201 435 512 436.791 512 439C512 441.209 517.201 443 523 443Z" fill="#2F2E41"/>
<path d="M498 442C503.799 442 508 440.209 508 438C508 435.791 503.799 434 498 434C492.201 434 487 435.791 487 438C487 440.209 492.201 442 498 442Z" fill="#2F2E41"/>
<path d="M513 385C520.732 385 527 379.008 527 371C527 362.992 520.732 356 513 356C505.268 356 499 362.992 499 371C499 379.008 505.268 385 513 385Z" fill="white"/>
<path d="M511 383C513.485 383 516 380.761 516 378C516 375.239 513.485 373 511 373C508.515 373 507 375.239 507 378C507 380.761 508.515 383 511 383Z" fill="#3F3D56"/>
<path d="M551 342C554.259 326.651 544.109 310.783 528 307C511.89 303.217 498.259 312.651 495 328C491.741 343.349 501.89 349.217 518 353C534.109 356.783 547.741 357.349 551 342Z" fill="#F55053"/>
<path d="M563.15 418.893C566.344 417.254 564.685 407.859 559.736 397.065C554.787 386.271 548.423 378.167 545.228 379.805C542.034 381.444 543.22 392.204 548.169 402.998C553.118 413.792 559.956 420.531 563.15 418.893Z" fill="#2F2E41"/>
<path d="M534 397C534 401.423 523.462 410 512 410C500.538 410 490 398.423 490 394C490 389.577 500.538 395 512 395C523.462 395 534 392.577 534 397Z" fill="white"/>
<path d="M484 569C506.368 569 524 549.748 524 526C524 502.252 506.368 483 484 483C461.632 483 443 502.252 443 526C443 549.748 461.632 569 484 569Z" fill="#2F2E41"/>
<path d="M477 560H465V583H477V560Z" fill="#2F2E41"/>
<path d="M502 560H490V583H502V560Z" fill="#2F2E41"/>
<path d="M483.418 591.731C484.318 589.713 481.29 586.201 476.102 583.61C470.914 581.019 465.531 580.33 464.631 582.347C463.73 584.365 467.653 588.324 472.841 590.915C478.029 593.506 482.517 593.748 483.418 591.731Z" fill="#2F2E41"/>
<path d="M508.733 590.538C509.523 588.475 506.303 585.148 500.973 582.863C495.643 580.578 490.221 580.202 489.431 582.265C488.641 584.328 492.78 588.049 498.11 590.334C503.44 592.618 507.942 592.601 508.733 590.538Z" fill="#2F2E41"/>
<path d="M445 487C441.741 471.651 451.89 455.783 468 452C484.109 448.217 497.741 457.651 501 473C504.259 488.349 494.109 494.217 478 498C461.89 501.783 448.259 502.349 445 487Z" fill="#F55053"/>
<path d="M531.279 508.926C535.3 496.586 535.77 485.034 532.137 483.71C528.505 482.386 522.146 491.791 518.125 504.132C514.105 516.472 513.944 527.073 517.577 528.397C521.209 529.721 527.258 521.266 531.279 508.926Z" fill="#2F2E41"/>
<path d="M451.088 521.627C453.935 518.618 448.827 509.057 440.104 499.823C431.381 490.59 422.345 485.18 419.498 488.189C416.651 491.198 421.072 501.485 429.795 510.719C438.518 519.953 448.241 524.636 451.088 521.627Z" fill="#2F2E41"/>
<path d="M175 603C197.368 603 216 583.748 216 560C216 536.252 197.368 517 175 517C152.632 517 135 536.252 135 560C135 583.748 152.632 603 175 603Z" fill="#2F2E41"/>
<path d="M170 593H158V616H170V593Z" fill="#2F2E41"/>
<path d="M194 593H182V616H194V593Z" fill="#2F2E41"/>
<path d="M169 621C174.799 621 179 619.209 179 617C179 614.791 174.799 613 169 613C163.201 613 158 614.791 158 617C158 619.209 163.201 621 169 621Z" fill="#2F2E41"/>
<path d="M193 620C198.799 620 203 618.209 203 616C203 613.791 198.799 612 193 612C187.201 612 182 613.791 182 616C182 618.209 187.201 620 193 620Z" fill="#2F2E41"/>
<path d="M137 520C133.741 504.651 143.89 488.783 160 485C176.109 481.217 189.741 490.651 193 506C196.259 521.349 186.109 527.217 170 531C153.89 534.783 140.259 535.349 137 520Z" fill="#3F3D56"/>
<path d="M228.722 570.306C230.575 566.601 222.867 559.017 211.781 552.815C200.696 546.612 190.431 544.14 188.578 547.845C186.726 551.55 193.986 560.028 205.072 566.23C216.157 572.433 226.869 574.01 228.722 570.306Z" fill="#2F2E41"/>
<path d="M170.196 343.894C180.316 338.818 187.98 332.279 186.511 329.003C185.043 325.728 174.997 326.956 164.877 332.032C154.757 337.109 148.395 344.112 149.864 347.387C151.333 350.663 160.076 348.971 170.196 343.894Z" fill="#2F2E41"/>
<path d="M83.7664 369.153C90.9649 360.06 94.9961 351.09 92.3086 348.71C89.6211 346.33 81.2326 351.441 74.034 360.534C66.8355 369.628 63.553 379.261 66.2405 381.641C68.928 384.021 76.5679 378.247 83.7664 369.153Z" fill="#2F2E41"/>
<path d="M122 400C144.368 400 162 380.748 162 357C162 333.252 144.368 314 122 314C99.6325 314 81 333.252 81 357C81 380.748 99.6325 400 122 400Z" fill="#2F2E41"/>
<path d="M117 391H105V414H117V391Z" fill="#2F2E41"/>
<path d="M141 391H129V414H141V391Z" fill="#2F2E41"/>
<path d="M115 419C120.799 419 126 417.209 126 415C126 412.791 120.799 411 115 411C109.201 411 105 412.791 105 415C105 417.209 109.201 419 115 419Z" fill="#2F2E41"/>
<path d="M139 418C144.799 418 150 416.209 150 414C150 411.791 144.799 410 139 410C133.201 410 129 411.791 129 414C129 416.209 133.201 418 139 418Z" fill="#2F2E41"/>
<path d="M133 303C129.403 287.778 114.992 278.828 99.0005 283C83.0088 287.172 73.4029 302.778 77.0005 318C80.598 333.222 93.0088 334.172 109 330C124.992 325.828 136.598 318.222 133 303Z" fill="#F55053"/>
<path d="M127 363C134.456 363 141 357.008 141 349C141 340.992 134.456 334 127 334C119.544 334 114 340.992 114 349C114 357.008 119.544 363 127 363Z" fill="white"/>
<path d="M129 359C131.485 359 133 356.761 133 354C133 351.239 131.485 349 129 349C126.515 349 124 351.239 124 354C124 356.761 126.515 359 129 359Z" fill="#3F3D56"/>
<path d="M119 378C118.795 379.284 118.758 382.725 119 384C119.242 385.275 120.348 385.927 121 387C121.651 388.073 122.037 388.293 123 389C123.962 389.707 124.873 390.766 126 391C127.126 391.234 128.88 391.275 130 391C131.119 390.725 132.058 389.742 133 389C133.942 388.257 135.379 388.097 136 387C136.62 385.903 136.795 384.284 137 383C137.858 377.6 133.739 373.977 129 373C124.261 372.022 119.858 372.6 119 378Z" fill="white"/>
<path d="M650 621H21C20.8524 621 21.1366 621.06 21 621C20.8635 620.94 20.1046 621.112 20 621C19.8955 620.888 20.0566 620.146 20 620C19.9434 619.854 20 620.159 20 620C20 619.841 19.9434 619.146 20 619C20.0566 618.854 19.8955 619.112 20 619C20.1046 618.888 20.8635 618.06 21 618C21.1366 617.94 20.8524 618 21 618H650C650.297 618.001 650.79 617.774 651 618C651.21 618.226 651 618.681 651 619C651 619.319 651.21 619.774 651 620C650.79 620.226 650.297 620.999 650 621Z" fill="#CACACA"/>
</g>
<defs>
<clipPath id="clip0_643_2">
<rect width="651" height="621" fill="white"/>
</clipPath>
</defs>
</svg>
